<svg width="14" height="12" viewBox="0 0 14 12" fill="none" xmlns="http://www.w3.org/2000/svg">
<path d="M4.375 11.1392C6.62216 11.1392 7.91477 9.23509 7.91477 5.90909C7.91477 2.60795 6.60227 0.678977 4.375 0.678977C2.14773 0.678977 0.835227 2.60795 0.835227 5.90909C0.835227 9.23509 2.12784 11.1392 4.375 11.1392ZM4.375 10.0455C2.89347 10.0455 2.02841 8.55895 2.02841 5.90909C2.02841 3.2642 2.90341 1.75284 4.375 1.75284C5.84659 1.75284 6.72159 3.2642 6.72159 5.90909C6.72159 8.55895 5.85653 10.0455 4.375 10.0455ZM13.3835 0.818182H12.1506L9.60511 2.50852V3.76136L12.0909 2.1108H12.1506V11H13.3835V0.818182Z" fill="white"/>
</svg>
