<svg width="17" height="12" viewBox="0 0 17 12" fill="none" xmlns="http://www.w3.org/2000/svg">
<path d="M4.375 11.1392C6.62216 11.1392 7.91477 9.23509 7.91477 5.90909C7.91477 2.60795 6.60227 0.678977 4.375 0.678977C2.14773 0.678977 0.835227 2.60795 0.835227 5.90909C0.835227 9.23509 2.12784 11.1392 4.375 11.1392ZM4.375 10.0455C2.89347 10.0455 2.02841 8.55895 2.02841 5.90909C2.02841 3.2642 2.90341 1.75284 4.375 1.75284C5.84659 1.75284 6.72159 3.2642 6.72159 5.90909C6.72159 8.55895 5.85653 10.0455 4.375 10.0455ZM13.2443 11.1392C15.218 11.1392 16.6847 9.90128 16.6847 8.2358C16.6847 6.94318 15.919 6.00355 14.6364 5.78977V5.71023C15.6655 5.39702 16.3068 4.55185 16.3068 3.40341C16.3068 1.96165 15.1683 0.678977 13.2841 0.678977C11.5241 0.678977 10.0625 1.76278 10.0028 3.36364H11.196C11.2408 2.34943 12.2053 1.75284 13.2642 1.75284C14.3878 1.75284 15.1136 2.43395 15.1136 3.46307C15.1136 4.53693 14.2734 5.23295 13.0653 5.23295H12.25V6.3267H13.0653C14.6115 6.3267 15.4716 7.11222 15.4716 8.2358C15.4716 9.31463 14.532 10.0455 13.2244 10.0455C12.0462 10.0455 11.1115 9.43892 11.0369 8.45455H9.78409C9.85866 10.0554 11.2706 11.1392 13.2443 11.1392Z" fill="white"/>
</svg>
