<svg width="24" height="24" viewBox="0 0 24 24" fill="none" xmlns="http://www.w3.org/2000/svg">
<path d="M11.9999 1.86096C6.41266 1.86096 1.86694 6.4093 1.86694 12C1.86694 17.5908 6.41266 22.139 11.9999 22.139C17.5874 22.139 22.1333 17.5908 22.1333 12C22.1331 6.4093 17.5872 1.86096 11.9999 1.86096ZM11.9999 21.139C6.96367 21.139 2.86637 17.0393 2.86637 12C2.86637 6.9608 6.96367 2.86096 11.9999 2.86096C17.0362 2.86096 21.1338 6.9608 21.1338 12C21.1337 17.0393 17.0362 21.139 11.9999 21.139Z" fill="white"/>
<path d="M15.1233 6.05066H12.9252C12.92 6.05066 12.915 6.05083 12.9102 6.05133C10.691 6.05833 10.4012 7.60882 10.4 8.96399C10.397 8.97666 10.3953 8.98966 10.3953 9.00316V9.95449H8.87653C8.78458 9.95449 8.70996 10.0292 8.70996 10.1212V12.4673C8.70996 12.5595 8.78458 12.634 8.87653 12.634H10.3953V17.7825C10.3953 17.8747 10.4699 17.9492 10.5619 17.9492H12.7784C12.8706 17.9492 12.945 17.8747 12.945 17.7825V12.6342H15.1231C15.2152 12.6342 15.2897 12.5597 15.2897 12.4675V10.1213C15.2897 10.0293 15.2152 9.95466 15.1231 9.95466H12.7784V8.69349H15.1231C15.2152 8.69349 15.2897 8.61882 15.2897 8.52682V6.21733C15.2898 6.12533 15.2152 6.05066 15.1233 6.05066Z" fill="white"/>
</svg>
