<svg width="24" height="24" viewBox="0 0 24 24" fill="none" xmlns="http://www.w3.org/2000/svg">
<g clip-path="url(#clip0_132_6)">
<path d="M17.4352 16.4453V12.4253C17.4352 10.2713 16.2854 9.26931 14.7524 9.26931C13.5157 9.26931 12.9614 9.94956 12.6524 10.4273V9.43431H10.3222C10.3529 10.0921 10.3222 16.4453 10.3222 16.4453H12.6524V12.5296C12.6524 12.3203 12.6674 12.1111 12.7297 11.9618C12.8977 11.5433 13.2809 11.1098 13.9244 11.1098C14.7682 11.1098 15.1049 11.7526 15.1049 12.6946V16.4453H17.4352ZM7.86745 8.47731C8.6797 8.47731 9.18595 7.93881 9.18595 7.26531C9.17095 6.57756 8.6797 6.05481 7.88245 6.05481C7.0852 6.05481 6.5647 6.57756 6.5647 7.26531C6.5647 7.93806 7.07095 8.47731 7.85245 8.47731H7.86745ZM9.0322 16.4453V9.43431H6.7027V16.4453H9.0322Z" fill="white"/>
<path d="M12 0.75C18.2033 0.75 23.25 5.79675 23.25 12C23.25 18.2033 18.2033 23.25 12 23.25C5.79675 23.25 0.75 18.2033 0.75 12C0.75 5.79675 5.79675 0.75 12 0.75ZM12 0C5.37225 0 0 5.37225 0 12C0 18.6278 5.373 24 12 24C18.627 24 24 18.627 24 12C24 5.373 18.627 0 12 0Z" fill="white"/>
</g>
<defs>
<clipPath id="clip0_132_6">
<rect width="24" height="24" fill="white"/>
</clipPath>
</defs>
</svg>
