<svg width="216" height="26" viewBox="0 0 216 26" fill="none" xmlns="http://www.w3.org/2000/svg">
<path d="M12.8192 25.2308H1.32462C0.592836 25.2308 0 24.6222 0 23.8717V1.96597C0 1.21527 0.592929 0.606934 1.32462 0.606934H22.6755C23.407 0.606934 24 1.21527 24 1.96597V23.8717C24 24.6223 23.4069 25.2308 22.6755 25.2308H16.5597V15.6951H19.6793L20.1464 11.9788H16.5597V9.60625C16.5597 8.53032 16.8509 7.7971 18.3546 7.7971L20.2727 7.79624V4.47241C19.9409 4.42712 18.8024 4.32594 17.4778 4.32594C14.7124 4.32594 12.8192 6.0578 12.8192 9.23821V11.9788H9.69156V15.6951H12.8192V25.2308Z" fill="#023047"/>
<path d="M151.988 7.64016C151.883 10.0684 150.249 13.3877 147.097 17.5997C143.834 22.0039 141.07 24.2046 138.811 24.2046C137.414 24.2046 136.23 22.8657 135.263 20.1791C134.615 17.7142 133.972 15.2492 133.326 12.7917C132.606 10.1036 131.835 8.76031 131.011 8.76031C130.832 8.76031 130.207 9.15229 129.129 9.93772L128 8.42412C129.183 7.34508 130.348 6.26163 131.498 5.18112C133.073 3.76295 134.257 3.01863 135.047 2.94083C136.91 2.75291 138.059 4.07859 138.492 6.91346C138.953 9.97442 139.278 11.8771 139.457 12.6228C139.996 15.1597 140.586 16.4252 141.232 16.4252C141.733 16.4252 142.487 15.606 143.491 13.9661C144.496 12.3234 145.031 11.0755 145.104 10.2152C145.248 8.79702 144.711 8.09233 143.491 8.09233C142.917 8.09233 142.324 8.21859 141.716 8.48285C142.902 4.49112 145.159 2.55032 148.495 2.66336C150.966 2.73529 152.133 4.39717 151.988 7.64016Z" fill="#023047"/>
<path d="M88 5.08788C87.1182 5.49991 86.1687 5.77854 85.1727 5.90304C86.1898 5.26277 86.9702 4.24752 87.3379 3.03811C86.3856 3.63096 85.3333 4.06225 84.2092 4.29346C83.3133 3.28711 82.0328 2.65869 80.6156 2.65869C77.8982 2.65869 75.6936 4.9782 75.6936 7.83868C75.6936 8.24478 75.7359 8.63902 75.8204 9.01845C71.7281 8.80206 68.1007 6.74192 65.6707 3.60428C65.2467 4.37202 65.0044 5.26277 65.0044 6.21132C65.0044 8.00764 65.8736 9.59351 67.1949 10.5228C66.3892 10.4976 65.6285 10.2619 64.9635 9.87659V9.94032C64.9635 12.451 66.661 14.5453 68.9149 15.0195C68.5022 15.1411 68.0669 15.2018 67.6175 15.2018C67.3006 15.2018 66.9907 15.1707 66.6906 15.1099C67.3175 17.1671 69.1347 18.6655 71.29 18.7055C69.6052 20.0958 67.4809 20.9243 65.1749 20.9243C64.7776 20.9243 64.3846 20.9006 64 20.8531C66.1793 22.3204 68.7684 23.1786 71.5478 23.1786C80.6057 23.1786 85.5573 15.2863 85.5573 8.44042C85.5573 8.21514 85.5531 7.98986 85.5446 7.76902C86.5068 7.03834 87.3421 6.12684 88 5.08788Z" fill="#023047"/>
<path fill-rule="evenodd" clip-rule="evenodd" d="M214.806 6.01209C215.525 6.76457 215.76 8.47334 215.76 8.47334C215.76 8.47334 216 10.4805 216 12.4868V14.3684C216 16.3755 215.76 18.3819 215.76 18.3819C215.76 18.3819 215.525 20.0907 214.806 20.8432C213.984 21.7333 213.072 21.8253 212.557 21.8773C212.5 21.883 212.448 21.8882 212.402 21.894C209.043 22.1451 204 22.1528 204 22.1528C204 22.1528 197.76 22.0939 195.84 21.9033C195.749 21.8857 195.639 21.8721 195.514 21.8566C194.906 21.7812 193.951 21.6629 193.193 20.8432C192.474 20.0907 192.24 18.3819 192.24 18.3819C192.24 18.3819 192 16.3755 192 14.3684V12.4868C192 10.4805 192.24 8.47334 192.24 8.47334C192.24 8.47334 192.474 6.76457 193.193 6.01209C194.017 5.12067 194.93 5.02969 195.445 4.97831C195.501 4.97274 195.553 4.96763 195.599 4.96202C198.957 4.71094 203.995 4.71094 203.995 4.71094H204.005C204.005 4.71094 209.043 4.71094 212.402 4.96202C212.447 4.96764 212.499 4.97275 212.555 4.97833C213.07 5.02972 213.983 5.12081 214.806 6.01209ZM201.521 9.68081L201.522 16.6484L208.006 13.1766L201.521 9.68081Z" fill="#023047"/>
</svg>
