<svg width="24" height="24" viewBox="0 0 24 24" fill="none" xmlns="http://www.w3.org/2000/svg">
<path d="M11.9999 1.86096C6.41266 1.86096 1.86694 6.4093 1.86694 12C1.86694 17.5908 6.41266 22.139 11.9999 22.139C17.5874 22.139 22.1333 17.5908 22.1333 12C22.1331 6.4093 17.5872 1.86096 11.9999 1.86096ZM11.9999 21.139C6.96367 21.139 2.86637 17.0393 2.86637 12C2.86637 6.9608 6.96367 2.86096 11.9999 2.86096C17.0362 2.86096 21.1338 6.9608 21.1338 12C21.1337 17.0393 17.0362 21.139 11.9999 21.139Z" fill="white"/>
<path d="M16.5252 8.69672C16.7581 8.57639 17.3157 8.21889 17.5786 7.45155C17.5786 7.45155 16.9451 7.90989 16.0829 7.96389L16.0673 7.97255C15.6262 7.49089 14.9921 7.18872 14.287 7.18872C12.9531 7.18872 11.8719 8.27072 11.8719 9.60539C11.8719 9.80789 11.897 10.0046 11.9442 10.1926L11.9325 10.1751C11.9325 10.1751 9.34566 10.3234 6.9069 7.65389C6.9069 7.65389 5.82868 9.48739 7.67479 10.8896C7.27052 10.9569 6.5566 10.5929 6.5566 10.5929C6.5566 10.5929 6.59691 12.5206 8.51014 12.9926C8.20032 13.0736 7.62082 13.1002 7.43226 13.0196C7.43226 13.0196 7.7151 14.4889 9.66897 14.7452C9.17042 15.0284 8.24079 15.8911 6.13867 15.7292C6.13867 15.7292 7.64814 16.9694 10.4507 16.7944C13.2532 16.6194 15.2879 14.7316 16.1098 12.7364C16.9316 10.7412 16.7029 9.60522 16.7029 9.60522C16.7029 9.60522 17.3897 9.24455 17.8617 8.38189C17.6437 8.44722 16.835 8.64489 16.534 8.71805C16.531 8.71105 16.528 8.70389 16.5252 8.69672Z" fill="white"/>
</svg>
