<svg width="24" height="24" viewBox="0 0 24 24" fill="none" xmlns="http://www.w3.org/2000/svg">
<path d="M11.9999 1.86096C6.41266 1.86096 1.86694 6.4093 1.86694 12C1.86694 17.5906 6.41266 22.139 11.9999 22.139C17.5874 22.139 22.1333 17.5906 22.1333 12C22.1333 6.4093 17.5872 1.86096 11.9999 1.86096ZM11.9999 21.139C6.96367 21.139 2.86637 17.0391 2.86637 12C2.86637 6.9608 6.96367 2.86096 11.9999 2.86096C17.0362 2.86096 21.1338 6.9608 21.1338 12C21.1338 17.0391 17.0362 21.139 11.9999 21.139Z" fill="white"/>
<path d="M16.0532 8.40299C16.0532 8.40299 14.9081 8.23633 11.9306 8.23633C8.94267 8.23633 7.89111 8.40299 7.89111 8.40299C7.15054 8.40299 6.55005 9.00366 6.55005 9.74466V14.1718C6.55005 14.9127 7.15037 15.5133 7.89111 15.5133C7.89111 15.5133 8.94267 15.68 11.9339 15.68C14.9079 15.68 16.0531 15.5133 16.0531 15.5133C16.7935 15.5133 17.3941 14.9127 17.3941 14.1718V9.74466C17.3943 9.00366 16.7938 8.40299 16.0532 8.40299ZM10.3305 14.0827V9.85766L13.9874 11.97L10.3305 14.0827Z" fill="white"/>
</svg>
