<svg width="24" height="19" viewBox="0 0 24 19" fill="none" xmlns="http://www.w3.org/2000/svg">
<path fill-rule="evenodd" clip-rule="evenodd" d="M22.806 2.01209C23.5252 2.76457 23.76 4.47334 23.76 4.47334C23.76 4.47334 24 6.48047 24 8.48683V10.3684C24 12.3755 23.76 14.3819 23.76 14.3819C23.76 14.3819 23.5252 16.0907 22.806 16.8432C21.9837 17.7333 21.0719 17.8253 20.5565 17.8773C20.4998 17.883 20.4479 17.8882 20.4015 17.894C17.043 18.1451 12 18.1528 12 18.1528C12 18.1528 5.76 18.0939 3.84 17.9033C3.74903 17.8857 3.63876 17.8721 3.51388 17.8566C2.9057 17.7812 1.95113 17.6629 1.19325 16.8432C0.474 16.0907 0.24 14.3819 0.24 14.3819C0.24 14.3819 0 12.3755 0 10.3684V8.48683C0 6.48047 0.24 4.47334 0.24 4.47334C0.24 4.47334 0.474 2.76457 1.19325 2.01209C2.0174 1.12067 2.93006 1.02969 3.44548 0.978308C3.50136 0.972737 3.55258 0.967632 3.5985 0.962023C6.957 0.710938 11.9948 0.710938 11.9948 0.710938H12.0052C12.0052 0.710938 17.043 0.710938 20.4015 0.962023C20.4474 0.967641 20.4987 0.972753 20.5546 0.978333C21.0696 1.02972 21.9827 1.12081 22.806 2.01209ZM9.52124 5.68081L9.52199 12.6484L16.0057 9.17663L9.52124 5.68081Z" fill="#023047"/>
</svg>
