<svg width="250" height="258" viewBox="0 0 250 258" fill="none" xmlns="http://www.w3.org/2000/svg">
<path d="M5.14765 1.00684C4.12955 1.00684 3.13429 1.31628 2.28777 1.896C1.44124 2.47572 0.781472 3.2997 0.39186 4.26373C0.00224738 5.22777 -0.0997159 6.28858 0.0989068 7.312C0.297529 8.33541 0.78781 9.27547 1.50772 10.0133C2.22763 10.7512 3.14484 11.2537 4.14338 11.4572C5.14192 11.6608 6.17694 11.5563 7.11755 11.157C8.05816 10.7577 8.86211 10.0814 9.42774 9.21383C9.99337 8.34622 10.2953 7.32618 10.2953 6.28271C10.2953 4.88346 9.75295 3.54152 8.78758 2.5521C7.82222 1.56268 6.51289 1.00684 5.14765 1.00684Z" fill="#C2C2C2"/>
<path d="M32.5756 1.00684C31.5575 1.00684 30.5623 1.31628 29.7157 1.896C28.8692 2.47572 28.2095 3.2997 27.8198 4.26373C27.4302 5.22777 27.3283 6.28858 27.5269 7.312C27.7255 8.33541 28.2158 9.27547 28.9357 10.0133C29.6556 10.7512 30.5728 11.2537 31.5714 11.4572C32.5699 11.6608 33.6049 11.5563 34.5455 11.157C35.4861 10.7577 36.2901 10.0814 36.8557 9.21383C37.4213 8.34622 37.7233 7.32618 37.7233 6.28271C37.7233 4.88346 37.1809 3.54152 36.2156 2.5521C35.2502 1.56268 33.9409 1.00684 32.5756 1.00684Z" fill="#C2C2C2"/>
<path d="M60.0041 1.00684C58.986 1.00684 57.9907 1.31628 57.1442 1.896C56.2977 2.47572 55.6379 3.2997 55.2483 4.26373C54.8587 5.22777 54.7567 6.28858 54.9554 7.312C55.154 8.33541 55.6443 9.27547 56.3642 10.0133C57.0841 10.7512 58.0013 11.2537 58.9998 11.4572C59.9984 11.6608 61.0334 11.5563 61.974 11.157C62.9146 10.7577 63.7186 10.0814 64.2842 9.21383C64.8498 8.34622 65.1517 7.32618 65.1517 6.28271C65.1517 4.88346 64.6094 3.54152 63.644 2.5521C62.6786 1.56268 61.3693 1.00684 60.0041 1.00684Z" fill="#C2C2C2"/>
<path d="M87.424 1.00684C86.4059 1.00684 85.4106 1.31628 84.5641 1.896C83.7176 2.47572 83.0578 3.2997 82.6682 4.26373C82.2786 5.22777 82.1767 6.28858 82.3753 7.312C82.5739 8.33541 83.0642 9.27547 83.7841 10.0133C84.504 10.7512 85.4212 11.2537 86.4198 11.4572C87.4183 11.6608 88.4533 11.5563 89.3939 11.157C90.3345 10.7577 91.1385 10.0814 91.7041 9.21383C92.2697 8.34622 92.5717 7.32618 92.5717 6.28271C92.5717 4.88346 92.0293 3.54152 91.0639 2.5521C90.0986 1.56268 88.7893 1.00684 87.424 1.00684Z" fill="#C2C2C2"/>
<path d="M114.852 11.5321C115.87 11.5321 116.866 11.2227 117.712 10.643C118.559 10.0633 119.218 9.23929 119.608 8.27526C119.998 7.31123 120.1 6.25044 119.901 5.22703C119.702 4.20362 119.212 3.26355 118.492 2.52571C117.772 1.78788 116.855 1.28541 115.856 1.08185C114.858 0.878277 113.823 0.982752 112.882 1.38207C111.942 1.78138 111.138 2.45761 110.572 3.32521C110.006 4.19282 109.705 5.21283 109.705 6.25629C109.705 7.65552 110.247 8.99745 111.212 9.98686C112.178 10.9763 113.487 11.5321 114.852 11.5321Z" fill="#C2C2C2"/>
<path d="M5.14765 29.1182C4.12955 29.1182 3.13429 29.4276 2.28777 30.0073C1.44124 30.587 0.781472 31.411 0.39186 32.375C0.00224738 33.3391 -0.0997159 34.3998 0.0989068 35.4233C0.297529 36.4467 0.78781 37.3867 1.50772 38.1245C2.22763 38.8624 3.14484 39.3649 4.14338 39.5684C5.14192 39.772 6.17694 39.6675 7.11755 39.2682C8.05816 38.8689 8.86211 38.1927 9.42774 37.3251C9.99337 36.4575 10.2953 35.4374 10.2953 34.394C10.2953 32.9947 9.75295 31.6528 8.78758 30.6634C7.82222 29.674 6.51289 29.1182 5.14765 29.1182Z" fill="#C2C2C2"/>
<path d="M32.5756 29.1182C31.5575 29.1182 30.5623 29.4276 29.7157 30.0073C28.8692 30.587 28.2095 31.411 27.8198 32.375C27.4302 33.3391 27.3283 34.3998 27.5269 35.4233C27.7255 36.4467 28.2158 37.3867 28.9357 38.1245C29.6556 38.8624 30.5728 39.3649 31.5714 39.5684C32.5699 39.772 33.6049 39.6675 34.5455 39.2682C35.4861 38.8689 36.2901 38.1927 36.8557 37.3251C37.4213 36.4575 37.7233 35.4374 37.7233 34.394C37.7233 32.9947 37.1809 31.6528 36.2156 30.6634C35.2502 29.674 33.9409 29.1182 32.5756 29.1182Z" fill="#C2C2C2"/>
<path d="M60.0041 29.1182C58.986 29.1182 57.9907 29.4276 57.1442 30.0073C56.2977 30.587 55.6379 31.411 55.2483 32.375C54.8587 33.3391 54.7567 34.3998 54.9554 35.4233C55.154 36.4467 55.6443 37.3867 56.3642 38.1245C57.0841 38.8624 58.0013 39.3649 58.9998 39.5684C59.9984 39.772 61.0334 39.6675 61.974 39.2682C62.9146 38.8689 63.7186 38.1927 64.2842 37.3251C64.8498 36.4575 65.1517 35.4374 65.1517 34.394C65.1517 32.9947 64.6094 31.6528 63.644 30.6634C62.6786 29.674 61.3693 29.1182 60.0041 29.1182Z" fill="#C2C2C2"/>
<path d="M87.424 29.1182C86.4059 29.1182 85.4106 29.4276 84.5641 30.0073C83.7176 30.587 83.0578 31.411 82.6682 32.375C82.2786 33.3391 82.1767 34.3998 82.3753 35.4233C82.5739 36.4467 83.0642 37.3867 83.7841 38.1245C84.504 38.8624 85.4212 39.3649 86.4198 39.5684C87.4183 39.772 88.4533 39.6675 89.3939 39.2682C90.3345 38.8689 91.1385 38.1927 91.7041 37.3251C92.2697 36.4575 92.5717 35.4374 92.5717 34.394C92.5717 32.9947 92.0293 31.6528 91.0639 30.6634C90.0986 29.674 88.7893 29.1182 87.424 29.1182Z" fill="#C2C2C2"/>
<path d="M114.852 29.1182C113.834 29.1182 112.839 29.4276 111.992 30.0073C111.146 30.587 110.486 31.411 110.096 32.375C109.707 33.3391 109.605 34.3998 109.804 35.4233C110.002 36.4467 110.492 37.3867 111.212 38.1245C111.932 38.8624 112.849 39.3649 113.848 39.5684C114.847 39.772 115.882 39.6675 116.822 39.2682C117.763 38.8689 118.567 38.1927 119.132 37.3251C119.698 36.4575 120 35.4374 120 34.394C120 32.9947 119.458 31.6528 118.492 30.6634C117.527 29.674 116.217 29.1182 114.852 29.1182Z" fill="#C2C2C2"/>
<path d="M5.14765 57.2292C4.12955 57.2292 3.13429 57.5387 2.28777 58.1184C1.44124 58.6981 0.781472 59.5221 0.39186 60.4861C0.00224738 61.4501 -0.0997159 62.5109 0.0989068 63.5343C0.297529 64.5578 0.78781 65.4978 1.50772 66.2356C2.22763 66.9735 3.14484 67.4759 4.14338 67.6795C5.14192 67.8831 6.17694 67.7786 7.11755 67.3793C8.05816 66.98 8.86211 66.3038 9.42774 65.4362C9.99337 64.5686 10.2953 63.5485 10.2953 62.5051C10.2953 61.1058 9.75295 59.7639 8.78758 58.7745C7.82222 57.7851 6.51289 57.2292 5.14765 57.2292Z" fill="#C2C2C2"/>
<path d="M32.5756 57.2292C31.5575 57.2292 30.5623 57.5387 29.7157 58.1184C28.8692 58.6981 28.2095 59.5221 27.8198 60.4861C27.4302 61.4501 27.3283 62.5109 27.5269 63.5343C27.7255 64.5578 28.2158 65.4978 28.9357 66.2356C29.6556 66.9735 30.5728 67.4759 31.5714 67.6795C32.5699 67.8831 33.6049 67.7786 34.5455 67.3793C35.4861 66.98 36.2901 66.3038 36.8557 65.4362C37.4213 64.5686 37.7233 63.5485 37.7233 62.5051C37.7233 61.1058 37.1809 59.7639 36.2156 58.7745C35.2502 57.7851 33.9409 57.2292 32.5756 57.2292Z" fill="#C2C2C2"/>
<path d="M60.0041 57.2292C58.986 57.2292 57.9907 57.5387 57.1442 58.1184C56.2977 58.6981 55.6379 59.5221 55.2483 60.4861C54.8587 61.4501 54.7567 62.5109 54.9554 63.5343C55.154 64.5578 55.6443 65.4978 56.3642 66.2356C57.0841 66.9735 58.0013 67.4759 58.9998 67.6795C59.9984 67.8831 61.0334 67.7786 61.974 67.3793C62.9146 66.98 63.7186 66.3038 64.2842 65.4362C64.8498 64.5686 65.1517 63.5485 65.1517 62.5051C65.1517 61.1058 64.6094 59.7639 63.644 58.7745C62.6786 57.7851 61.3693 57.2292 60.0041 57.2292Z" fill="#C2C2C2"/>
<path d="M87.424 57.2292C86.4059 57.2292 85.4106 57.5387 84.5641 58.1184C83.7176 58.6981 83.0578 59.5221 82.6682 60.4861C82.2786 61.4501 82.1767 62.5109 82.3753 63.5343C82.5739 64.5578 83.0642 65.4978 83.7841 66.2356C84.504 66.9735 85.4212 67.4759 86.4198 67.6795C87.4183 67.8831 88.4533 67.7786 89.3939 67.3793C90.3345 66.98 91.1385 66.3038 91.7041 65.4362C92.2697 64.5686 92.5717 63.5485 92.5717 62.5051C92.5717 61.1058 92.0293 59.7639 91.0639 58.7745C90.0986 57.7851 88.7893 57.2292 87.424 57.2292Z" fill="#C2C2C2"/>
<path d="M114.852 57.2292C113.834 57.2292 112.839 57.5387 111.992 58.1184C111.146 58.6981 110.486 59.5221 110.096 60.4861C109.707 61.4501 109.605 62.5109 109.804 63.5343C110.002 64.5578 110.492 65.4978 111.212 66.2356C111.932 66.9735 112.849 67.4759 113.848 67.6795C114.847 67.8831 115.882 67.7786 116.822 67.3793C117.763 66.98 118.567 66.3038 119.132 65.4362C119.698 64.5686 120 63.5485 120 62.5051C120 61.1058 119.458 59.7639 118.492 58.7745C117.527 57.7851 116.217 57.2292 114.852 57.2292Z" fill="#C2C2C2"/>
<path d="M5.14765 85.3318C4.12955 85.3318 3.13429 85.6412 2.28777 86.2209C1.44124 86.8006 0.781472 87.6246 0.39186 88.5886C0.00224738 89.5527 -0.0997159 90.6135 0.0989068 91.6369C0.297529 92.6603 0.78781 93.6003 1.50772 94.3382C2.22763 95.076 3.14484 95.5785 4.14338 95.782C5.14192 95.9856 6.17694 95.8811 7.11755 95.4818C8.05816 95.0825 8.86211 94.4063 9.42774 93.5387C9.99337 92.6711 10.2953 91.6511 10.2953 90.6076C10.2953 89.2084 9.75295 87.8664 8.78758 86.877C7.82222 85.8876 6.51289 85.3318 5.14765 85.3318Z" fill="#C2C2C2"/>
<path d="M32.5756 85.3318C31.5575 85.3318 30.5623 85.6412 29.7157 86.2209C28.8692 86.8006 28.2095 87.6246 27.8198 88.5886C27.4302 89.5527 27.3283 90.6135 27.5269 91.6369C27.7255 92.6603 28.2158 93.6003 28.9357 94.3382C29.6556 95.076 30.5728 95.5785 31.5714 95.782C32.5699 95.9856 33.6049 95.8811 34.5455 95.4818C35.4861 95.0825 36.2901 94.4063 36.8557 93.5387C37.4213 92.6711 37.7233 91.6511 37.7233 90.6076C37.7233 89.2084 37.1809 87.8664 36.2156 86.877C35.2502 85.8876 33.9409 85.3318 32.5756 85.3318Z" fill="#C2C2C2"/>
<path d="M60.0041 85.3318C58.986 85.3318 57.9907 85.6412 57.1442 86.2209C56.2977 86.8006 55.6379 87.6246 55.2483 88.5886C54.8587 89.5527 54.7567 90.6135 54.9554 91.6369C55.154 92.6603 55.6443 93.6003 56.3642 94.3382C57.0841 95.076 58.0013 95.5785 58.9998 95.782C59.9984 95.9856 61.0334 95.8811 61.974 95.4818C62.9146 95.0825 63.7186 94.4063 64.2842 93.5387C64.8498 92.6711 65.1517 91.6511 65.1517 90.6076C65.1517 89.2084 64.6094 87.8664 63.644 86.877C62.6786 85.8876 61.3693 85.3318 60.0041 85.3318Z" fill="#C2C2C2"/>
<path d="M87.424 85.3318C86.4059 85.3318 85.4106 85.6412 84.5641 86.2209C83.7176 86.8006 83.0578 87.6246 82.6682 88.5886C82.2786 89.5527 82.1767 90.6135 82.3753 91.6369C82.5739 92.6603 83.0642 93.6003 83.7841 94.3382C84.504 95.076 85.4212 95.5785 86.4198 95.782C87.4183 95.9856 88.4533 95.8811 89.3939 95.4818C90.3345 95.0825 91.1385 94.4063 91.7041 93.5387C92.2697 92.6711 92.5717 91.6511 92.5717 90.6076C92.5717 89.2084 92.0293 87.8664 91.0639 86.877C90.0986 85.8876 88.7893 85.3318 87.424 85.3318Z" fill="#C2C2C2"/>
<path d="M114.852 85.3318C113.834 85.3318 112.839 85.6412 111.992 86.2209C111.146 86.8006 110.486 87.6246 110.096 88.5886C109.707 89.5527 109.605 90.6135 109.804 91.6369C110.002 92.6603 110.492 93.6003 111.212 94.3382C111.932 95.076 112.849 95.5785 113.848 95.782C114.847 95.9856 115.882 95.8811 116.822 95.4818C117.763 95.0825 118.567 94.4063 119.132 93.5387C119.698 92.6711 120 91.6511 120 90.6076C120 89.2084 119.458 87.8664 118.492 86.877C117.527 85.8876 116.217 85.3318 114.852 85.3318Z" fill="#C2C2C2"/>
<path d="M5.14765 113.443C4.12955 113.443 3.13429 113.752 2.28777 114.332C1.44124 114.912 0.781472 115.736 0.39186 116.7C0.00224738 117.664 -0.0997159 118.724 0.0989068 119.748C0.297529 120.771 0.78781 121.711 1.50772 122.449C2.22763 123.187 3.14484 123.689 4.14338 123.893C5.14192 124.097 6.17694 123.992 7.11755 123.593C8.05816 123.193 8.86211 122.517 9.42774 121.65C9.99337 120.782 10.2953 119.762 10.2953 118.719C10.2953 117.319 9.75295 115.978 8.78758 114.988C7.82222 113.999 6.51289 113.443 5.14765 113.443Z" fill="#C2C2C2"/>
<path d="M32.5756 113.443C31.5575 113.443 30.5623 113.752 29.7157 114.332C28.8692 114.912 28.2095 115.736 27.8198 116.7C27.4302 117.664 27.3283 118.724 27.5269 119.748C27.7255 120.771 28.2158 121.711 28.9357 122.449C29.6556 123.187 30.5728 123.689 31.5714 123.893C32.5699 124.097 33.6049 123.992 34.5455 123.593C35.4861 123.193 36.2901 122.517 36.8557 121.65C37.4213 120.782 37.7233 119.762 37.7233 118.719C37.7233 117.319 37.1809 115.978 36.2156 114.988C35.2502 113.999 33.9409 113.443 32.5756 113.443Z" fill="#C2C2C2"/>
<path d="M60.0041 113.443C58.986 113.443 57.9907 113.752 57.1442 114.332C56.2977 114.912 55.6379 115.736 55.2483 116.7C54.8587 117.664 54.7567 118.724 54.9554 119.748C55.154 120.771 55.6443 121.711 56.3642 122.449C57.0841 123.187 58.0013 123.689 58.9998 123.893C59.9984 124.097 61.0334 123.992 61.974 123.593C62.9146 123.193 63.7186 122.517 64.2842 121.65C64.8498 120.782 65.1517 119.762 65.1517 118.719C65.1517 117.319 64.6094 115.978 63.644 114.988C62.6786 113.999 61.3693 113.443 60.0041 113.443Z" fill="#C2C2C2"/>
<path d="M87.424 113.443C86.4059 113.443 85.4106 113.752 84.5641 114.332C83.7176 114.912 83.0578 115.736 82.6682 116.7C82.2786 117.664 82.1767 118.724 82.3753 119.748C82.5739 120.771 83.0642 121.711 83.7841 122.449C84.504 123.187 85.4212 123.689 86.4198 123.893C87.4183 124.097 88.4533 123.992 89.3939 123.593C90.3345 123.193 91.1385 122.517 91.7041 121.65C92.2697 120.782 92.5717 119.762 92.5717 118.719C92.5717 117.319 92.0293 115.978 91.0639 114.988C90.0986 113.999 88.7893 113.443 87.424 113.443Z" fill="#C2C2C2"/>
<path d="M114.852 113.443C113.834 113.443 112.839 113.752 111.992 114.332C111.146 114.912 110.486 115.736 110.096 116.7C109.707 117.664 109.605 118.724 109.804 119.748C110.002 120.771 110.492 121.711 111.212 122.449C111.932 123.187 112.849 123.689 113.848 123.893C114.847 124.097 115.882 123.992 116.822 123.593C117.763 123.193 118.567 122.517 119.132 121.65C119.698 120.782 120 119.762 120 118.719C120 117.319 119.458 115.978 118.492 114.988C117.527 113.999 116.217 113.443 114.852 113.443Z" fill="#C2C2C2"/>
<path d="M135.148 1.00684C134.13 1.00684 133.134 1.31628 132.288 1.896C131.441 2.47572 130.781 3.2997 130.392 4.26373C130.002 5.22777 129.9 6.28858 130.099 7.312C130.298 8.33541 130.788 9.27547 131.508 10.0133C132.228 10.7512 133.145 11.2537 134.143 11.4572C135.142 11.6608 136.177 11.5563 137.118 11.157C138.058 10.7577 138.862 10.0814 139.428 9.21383C139.993 8.34622 140.295 7.32618 140.295 6.28271C140.295 4.88346 139.753 3.54152 138.788 2.5521C137.822 1.56268 136.513 1.00684 135.148 1.00684Z" fill="#C2C2C2"/>
<path d="M162.576 1.00684C161.558 1.00684 160.562 1.31628 159.716 1.896C158.869 2.47572 158.209 3.2997 157.82 4.26373C157.43 5.22777 157.328 6.28858 157.527 7.312C157.726 8.33541 158.216 9.27547 158.936 10.0133C159.656 10.7512 160.573 11.2537 161.571 11.4572C162.57 11.6608 163.605 11.5563 164.546 11.157C165.486 10.7577 166.29 10.0814 166.856 9.21383C167.421 8.34622 167.723 7.32618 167.723 6.28271C167.723 4.88346 167.181 3.54152 166.216 2.5521C165.25 1.56268 163.941 1.00684 162.576 1.00684Z" fill="#C2C2C2"/>
<path d="M190.004 1.00684C188.986 1.00684 187.991 1.31628 187.144 1.896C186.298 2.47572 185.638 3.2997 185.248 4.26373C184.859 5.22777 184.757 6.28858 184.955 7.312C185.154 8.33541 185.644 9.27547 186.364 10.0133C187.084 10.7512 188.001 11.2537 189 11.4572C189.998 11.6608 191.033 11.5563 191.974 11.157C192.915 10.7577 193.719 10.0814 194.284 9.21383C194.85 8.34622 195.152 7.32618 195.152 6.28271C195.152 4.88346 194.609 3.54152 193.644 2.5521C192.679 1.56268 191.369 1.00684 190.004 1.00684Z" fill="#C2C2C2"/>
<path d="M217.424 1.00684C216.406 1.00684 215.411 1.31628 214.564 1.896C213.718 2.47572 213.058 3.2997 212.668 4.26373C212.279 5.22777 212.177 6.28858 212.375 7.312C212.574 8.33541 213.064 9.27547 213.784 10.0133C214.504 10.7512 215.421 11.2537 216.42 11.4572C217.418 11.6608 218.453 11.5563 219.394 11.157C220.335 10.7577 221.138 10.0814 221.704 9.21383C222.27 8.34622 222.572 7.32618 222.572 6.28271C222.572 4.88346 222.029 3.54152 221.064 2.5521C220.099 1.56268 218.789 1.00684 217.424 1.00684Z" fill="#C2C2C2"/>
<path d="M244.852 11.5321C245.87 11.5321 246.866 11.2227 247.712 10.643C248.559 10.0633 249.218 9.23929 249.608 8.27526C249.998 7.31123 250.1 6.25044 249.901 5.22703C249.702 4.20362 249.212 3.26355 248.492 2.52571C247.772 1.78788 246.855 1.28541 245.856 1.08185C244.858 0.878277 243.823 0.982752 242.882 1.38207C241.942 1.78138 241.138 2.45761 240.572 3.32521C240.006 4.19282 239.705 5.21283 239.705 6.25629C239.705 7.65552 240.247 8.99745 241.212 9.98686C242.178 10.9763 243.487 11.5321 244.852 11.5321Z" fill="#C2C2C2"/>
<path d="M135.148 29.1182C134.13 29.1182 133.134 29.4276 132.288 30.0073C131.441 30.587 130.781 31.411 130.392 32.375C130.002 33.3391 129.9 34.3998 130.099 35.4233C130.298 36.4467 130.788 37.3867 131.508 38.1245C132.228 38.8624 133.145 39.3649 134.143 39.5684C135.142 39.772 136.177 39.6675 137.118 39.2682C138.058 38.8689 138.862 38.1927 139.428 37.3251C139.993 36.4575 140.295 35.4374 140.295 34.394C140.295 32.9947 139.753 31.6528 138.788 30.6634C137.822 29.674 136.513 29.1182 135.148 29.1182Z" fill="#C2C2C2"/>
<path d="M162.576 29.1182C161.558 29.1182 160.562 29.4276 159.716 30.0073C158.869 30.587 158.209 31.411 157.82 32.375C157.43 33.3391 157.328 34.3998 157.527 35.4233C157.726 36.4467 158.216 37.3867 158.936 38.1245C159.656 38.8624 160.573 39.3649 161.571 39.5684C162.57 39.772 163.605 39.6675 164.546 39.2682C165.486 38.8689 166.29 38.1927 166.856 37.3251C167.421 36.4575 167.723 35.4374 167.723 34.394C167.723 32.9947 167.181 31.6528 166.216 30.6634C165.25 29.674 163.941 29.1182 162.576 29.1182Z" fill="#C2C2C2"/>
<path d="M190.004 29.1182C188.986 29.1182 187.991 29.4276 187.144 30.0073C186.298 30.587 185.638 31.411 185.248 32.375C184.859 33.3391 184.757 34.3998 184.955 35.4233C185.154 36.4467 185.644 37.3867 186.364 38.1245C187.084 38.8624 188.001 39.3649 189 39.5684C189.998 39.772 191.033 39.6675 191.974 39.2682C192.915 38.8689 193.719 38.1927 194.284 37.3251C194.85 36.4575 195.152 35.4374 195.152 34.394C195.152 32.9947 194.609 31.6528 193.644 30.6634C192.679 29.674 191.369 29.1182 190.004 29.1182Z" fill="#C2C2C2"/>
<path d="M217.424 29.1182C216.406 29.1182 215.411 29.4276 214.564 30.0073C213.718 30.587 213.058 31.411 212.668 32.375C212.279 33.3391 212.177 34.3998 212.375 35.4233C212.574 36.4467 213.064 37.3867 213.784 38.1245C214.504 38.8624 215.421 39.3649 216.42 39.5684C217.418 39.772 218.453 39.6675 219.394 39.2682C220.335 38.8689 221.138 38.1927 221.704 37.3251C222.27 36.4575 222.572 35.4374 222.572 34.394C222.572 32.9947 222.029 31.6528 221.064 30.6634C220.099 29.674 218.789 29.1182 217.424 29.1182Z" fill="#C2C2C2"/>
<path d="M244.852 29.1182C243.834 29.1182 242.839 29.4276 241.992 30.0073C241.146 30.587 240.486 31.411 240.096 32.375C239.707 33.3391 239.605 34.3998 239.804 35.4233C240.002 36.4467 240.492 37.3867 241.212 38.1245C241.932 38.8624 242.849 39.3649 243.848 39.5684C244.847 39.772 245.882 39.6675 246.822 39.2682C247.763 38.8689 248.567 38.1927 249.132 37.3251C249.698 36.4575 250 35.4374 250 34.394C250 32.9947 249.458 31.6528 248.492 30.6634C247.527 29.674 246.217 29.1182 244.852 29.1182Z" fill="#C2C2C2"/>
<path d="M135.148 57.2292C134.13 57.2292 133.134 57.5387 132.288 58.1184C131.441 58.6981 130.781 59.5221 130.392 60.4861C130.002 61.4501 129.9 62.5109 130.099 63.5343C130.298 64.5578 130.788 65.4978 131.508 66.2356C132.228 66.9735 133.145 67.4759 134.143 67.6795C135.142 67.8831 136.177 67.7786 137.118 67.3793C138.058 66.98 138.862 66.3038 139.428 65.4362C139.993 64.5686 140.295 63.5485 140.295 62.5051C140.295 61.1058 139.753 59.7639 138.788 58.7745C137.822 57.7851 136.513 57.2292 135.148 57.2292Z" fill="#C2C2C2"/>
<path d="M162.576 57.2292C161.558 57.2292 160.562 57.5387 159.716 58.1184C158.869 58.6981 158.209 59.5221 157.82 60.4861C157.43 61.4501 157.328 62.5109 157.527 63.5343C157.726 64.5578 158.216 65.4978 158.936 66.2356C159.656 66.9735 160.573 67.4759 161.571 67.6795C162.57 67.8831 163.605 67.7786 164.546 67.3793C165.486 66.98 166.29 66.3038 166.856 65.4362C167.421 64.5686 167.723 63.5485 167.723 62.5051C167.723 61.1058 167.181 59.7639 166.216 58.7745C165.25 57.7851 163.941 57.2292 162.576 57.2292Z" fill="#C2C2C2"/>
<path d="M190.004 57.2292C188.986 57.2292 187.991 57.5387 187.144 58.1184C186.298 58.6981 185.638 59.5221 185.248 60.4861C184.859 61.4501 184.757 62.5109 184.955 63.5343C185.154 64.5578 185.644 65.4978 186.364 66.2356C187.084 66.9735 188.001 67.4759 189 67.6795C189.998 67.8831 191.033 67.7786 191.974 67.3793C192.915 66.98 193.719 66.3038 194.284 65.4362C194.85 64.5686 195.152 63.5485 195.152 62.5051C195.152 61.1058 194.609 59.7639 193.644 58.7745C192.679 57.7851 191.369 57.2292 190.004 57.2292Z" fill="#C2C2C2"/>
<path d="M217.424 57.2292C216.406 57.2292 215.411 57.5387 214.564 58.1184C213.718 58.6981 213.058 59.5221 212.668 60.4861C212.279 61.4501 212.177 62.5109 212.375 63.5343C212.574 64.5578 213.064 65.4978 213.784 66.2356C214.504 66.9735 215.421 67.4759 216.42 67.6795C217.418 67.8831 218.453 67.7786 219.394 67.3793C220.335 66.98 221.138 66.3038 221.704 65.4362C222.27 64.5686 222.572 63.5485 222.572 62.5051C222.572 61.1058 222.029 59.7639 221.064 58.7745C220.099 57.7851 218.789 57.2292 217.424 57.2292Z" fill="#C2C2C2"/>
<path d="M244.852 57.2292C243.834 57.2292 242.839 57.5387 241.992 58.1184C241.146 58.6981 240.486 59.5221 240.096 60.4861C239.707 61.4501 239.605 62.5109 239.804 63.5343C240.002 64.5578 240.492 65.4978 241.212 66.2356C241.932 66.9735 242.849 67.4759 243.848 67.6795C244.847 67.8831 245.882 67.7786 246.822 67.3793C247.763 66.98 248.567 66.3038 249.132 65.4362C249.698 64.5686 250 63.5485 250 62.5051C250 61.1058 249.458 59.7639 248.492 58.7745C247.527 57.7851 246.217 57.2292 244.852 57.2292Z" fill="#C2C2C2"/>
<path d="M135.148 85.3318C134.13 85.3318 133.134 85.6412 132.288 86.2209C131.441 86.8006 130.781 87.6246 130.392 88.5886C130.002 89.5527 129.9 90.6135 130.099 91.6369C130.298 92.6603 130.788 93.6003 131.508 94.3382C132.228 95.076 133.145 95.5785 134.143 95.782C135.142 95.9856 136.177 95.8811 137.118 95.4818C138.058 95.0825 138.862 94.4063 139.428 93.5387C139.993 92.6711 140.295 91.6511 140.295 90.6076C140.295 89.2084 139.753 87.8664 138.788 86.877C137.822 85.8876 136.513 85.3318 135.148 85.3318Z" fill="#C2C2C2"/>
<path d="M162.576 85.3318C161.558 85.3318 160.562 85.6412 159.716 86.2209C158.869 86.8006 158.209 87.6246 157.82 88.5886C157.43 89.5527 157.328 90.6135 157.527 91.6369C157.726 92.6603 158.216 93.6003 158.936 94.3382C159.656 95.076 160.573 95.5785 161.571 95.782C162.57 95.9856 163.605 95.8811 164.546 95.4818C165.486 95.0825 166.29 94.4063 166.856 93.5387C167.421 92.6711 167.723 91.6511 167.723 90.6076C167.723 89.2084 167.181 87.8664 166.216 86.877C165.25 85.8876 163.941 85.3318 162.576 85.3318Z" fill="#C2C2C2"/>
<path d="M190.004 85.3318C188.986 85.3318 187.991 85.6412 187.144 86.2209C186.298 86.8006 185.638 87.6246 185.248 88.5886C184.859 89.5527 184.757 90.6135 184.955 91.6369C185.154 92.6603 185.644 93.6003 186.364 94.3382C187.084 95.076 188.001 95.5785 189 95.782C189.998 95.9856 191.033 95.8811 191.974 95.4818C192.915 95.0825 193.719 94.4063 194.284 93.5387C194.85 92.6711 195.152 91.6511 195.152 90.6076C195.152 89.2084 194.609 87.8664 193.644 86.877C192.679 85.8876 191.369 85.3318 190.004 85.3318Z" fill="#C2C2C2"/>
<path d="M217.424 85.3318C216.406 85.3318 215.411 85.6412 214.564 86.2209C213.718 86.8006 213.058 87.6246 212.668 88.5886C212.279 89.5527 212.177 90.6135 212.375 91.6369C212.574 92.6603 213.064 93.6003 213.784 94.3382C214.504 95.076 215.421 95.5785 216.42 95.782C217.418 95.9856 218.453 95.8811 219.394 95.4818C220.335 95.0825 221.138 94.4063 221.704 93.5387C222.27 92.6711 222.572 91.6511 222.572 90.6076C222.572 89.2084 222.029 87.8664 221.064 86.877C220.099 85.8876 218.789 85.3318 217.424 85.3318Z" fill="#C2C2C2"/>
<path d="M244.852 85.3318C243.834 85.3318 242.839 85.6412 241.992 86.2209C241.146 86.8006 240.486 87.6246 240.096 88.5886C239.707 89.5527 239.605 90.6135 239.804 91.6369C240.002 92.6603 240.492 93.6003 241.212 94.3382C241.932 95.076 242.849 95.5785 243.848 95.782C244.847 95.9856 245.882 95.8811 246.822 95.4818C247.763 95.0825 248.567 94.4063 249.132 93.5387C249.698 92.6711 250 91.6511 250 90.6076C250 89.2084 249.458 87.8664 248.492 86.877C247.527 85.8876 246.217 85.3318 244.852 85.3318Z" fill="#C2C2C2"/>
<path d="M135.148 113.443C134.13 113.443 133.134 113.752 132.288 114.332C131.441 114.912 130.781 115.736 130.392 116.7C130.002 117.664 129.9 118.724 130.099 119.748C130.298 120.771 130.788 121.711 131.508 122.449C132.228 123.187 133.145 123.689 134.143 123.893C135.142 124.097 136.177 123.992 137.118 123.593C138.058 123.193 138.862 122.517 139.428 121.65C139.993 120.782 140.295 119.762 140.295 118.719C140.295 117.319 139.753 115.978 138.788 114.988C137.822 113.999 136.513 113.443 135.148 113.443Z" fill="#C2C2C2"/>
<path d="M162.576 113.443C161.558 113.443 160.562 113.752 159.716 114.332C158.869 114.912 158.209 115.736 157.82 116.7C157.43 117.664 157.328 118.724 157.527 119.748C157.726 120.771 158.216 121.711 158.936 122.449C159.656 123.187 160.573 123.689 161.571 123.893C162.57 124.097 163.605 123.992 164.546 123.593C165.486 123.193 166.29 122.517 166.856 121.65C167.421 120.782 167.723 119.762 167.723 118.719C167.723 117.319 167.181 115.978 166.216 114.988C165.25 113.999 163.941 113.443 162.576 113.443Z" fill="#C2C2C2"/>
<path d="M190.004 113.443C188.986 113.443 187.991 113.752 187.144 114.332C186.298 114.912 185.638 115.736 185.248 116.7C184.859 117.664 184.757 118.724 184.955 119.748C185.154 120.771 185.644 121.711 186.364 122.449C187.084 123.187 188.001 123.689 189 123.893C189.998 124.097 191.033 123.992 191.974 123.593C192.915 123.193 193.719 122.517 194.284 121.65C194.85 120.782 195.152 119.762 195.152 118.719C195.152 117.319 194.609 115.978 193.644 114.988C192.679 113.999 191.369 113.443 190.004 113.443Z" fill="#C2C2C2"/>
<path d="M217.424 113.443C216.406 113.443 215.411 113.752 214.564 114.332C213.718 114.912 213.058 115.736 212.668 116.7C212.279 117.664 212.177 118.724 212.375 119.748C212.574 120.771 213.064 121.711 213.784 122.449C214.504 123.187 215.421 123.689 216.42 123.893C217.418 124.097 218.453 123.992 219.394 123.593C220.335 123.193 221.138 122.517 221.704 121.65C222.27 120.782 222.572 119.762 222.572 118.719C222.572 117.319 222.029 115.978 221.064 114.988C220.099 113.999 218.789 113.443 217.424 113.443Z" fill="#C2C2C2"/>
<path d="M244.852 113.443C243.834 113.443 242.839 113.752 241.992 114.332C241.146 114.912 240.486 115.736 240.096 116.7C239.707 117.664 239.605 118.724 239.804 119.748C240.002 120.771 240.492 121.711 241.212 122.449C241.932 123.187 242.849 123.689 243.848 123.893C244.847 124.097 245.882 123.992 246.822 123.593C247.763 123.193 248.567 122.517 249.132 121.65C249.698 120.782 250 119.762 250 118.719C250 117.319 249.458 115.978 248.492 114.988C247.527 113.999 246.217 113.443 244.852 113.443Z" fill="#C2C2C2"/>
<path d="M5.14765 134.244C4.12955 134.244 3.13429 134.553 2.28777 135.133C1.44124 135.712 0.781472 136.536 0.39186 137.5C0.00224738 138.464 -0.0997159 139.525 0.0989068 140.549C0.297529 141.572 0.78781 142.512 1.50772 143.25C2.22763 143.988 3.14484 144.49 4.14338 144.694C5.14192 144.897 6.17694 144.793 7.11755 144.394C8.05816 143.994 8.86211 143.318 9.42774 142.45C9.99337 141.583 10.2953 140.563 10.2953 139.519C10.2953 138.12 9.75295 136.778 8.78758 135.789C7.82222 134.799 6.51289 134.244 5.14765 134.244Z" fill="#C2C2C2"/>
<path d="M32.5756 134.244C31.5575 134.244 30.5623 134.553 29.7157 135.133C28.8692 135.712 28.2095 136.536 27.8198 137.5C27.4302 138.464 27.3283 139.525 27.5269 140.549C27.7255 141.572 28.2158 142.512 28.9357 143.25C29.6556 143.988 30.5728 144.49 31.5714 144.694C32.5699 144.897 33.6049 144.793 34.5455 144.394C35.4861 143.994 36.2901 143.318 36.8557 142.45C37.4213 141.583 37.7233 140.563 37.7233 139.519C37.7233 138.12 37.1809 136.778 36.2156 135.789C35.2502 134.799 33.9409 134.244 32.5756 134.244Z" fill="#C2C2C2"/>
<path d="M60.0041 134.244C58.986 134.244 57.9907 134.553 57.1442 135.133C56.2977 135.712 55.6379 136.536 55.2483 137.5C54.8587 138.464 54.7567 139.525 54.9554 140.549C55.154 141.572 55.6443 142.512 56.3642 143.25C57.0841 143.988 58.0013 144.49 58.9998 144.694C59.9984 144.897 61.0334 144.793 61.974 144.394C62.9146 143.994 63.7186 143.318 64.2842 142.45C64.8498 141.583 65.1517 140.563 65.1517 139.519C65.1517 138.12 64.6094 136.778 63.644 135.789C62.6786 134.799 61.3693 134.244 60.0041 134.244Z" fill="#C2C2C2"/>
<path d="M87.424 134.244C86.4059 134.244 85.4106 134.553 84.5641 135.133C83.7176 135.712 83.0578 136.536 82.6682 137.5C82.2786 138.464 82.1767 139.525 82.3753 140.549C82.5739 141.572 83.0642 142.512 83.7841 143.25C84.504 143.988 85.4212 144.49 86.4198 144.694C87.4183 144.897 88.4533 144.793 89.3939 144.394C90.3345 143.994 91.1385 143.318 91.7041 142.45C92.2697 141.583 92.5717 140.563 92.5717 139.519C92.5717 138.12 92.0293 136.778 91.0639 135.789C90.0986 134.799 88.7893 134.244 87.424 134.244Z" fill="#C2C2C2"/>
<path d="M114.852 144.769C115.87 144.769 116.866 144.459 117.712 143.88C118.559 143.3 119.218 142.476 119.608 141.512C119.998 140.548 120.1 139.487 119.901 138.464C119.702 137.44 119.212 136.5 118.492 135.763C117.772 135.025 116.855 134.522 115.856 134.319C114.858 134.115 113.823 134.22 112.882 134.619C111.942 135.018 111.138 135.694 110.572 136.562C110.006 137.43 109.705 138.45 109.705 139.493C109.705 140.892 110.247 142.234 111.212 143.224C112.178 144.213 113.487 144.769 114.852 144.769Z" fill="#C2C2C2"/>
<path d="M5.14765 162.355C4.12955 162.355 3.13429 162.664 2.28777 163.244C1.44124 163.824 0.781472 164.648 0.39186 165.612C0.00224738 166.576 -0.0997159 167.637 0.0989068 168.66C0.297529 169.683 0.78781 170.623 1.50772 171.361C2.22763 172.099 3.14484 172.602 4.14338 172.805C5.14192 173.009 6.17694 172.904 7.11755 172.505C8.05816 172.106 8.86211 171.429 9.42774 170.562C9.99337 169.694 10.2953 168.674 10.2953 167.631C10.2953 166.232 9.75295 164.89 8.78758 163.9C7.82222 162.911 6.51289 162.355 5.14765 162.355Z" fill="#C2C2C2"/>
<path d="M32.5756 162.355C31.5575 162.355 30.5623 162.664 29.7157 163.244C28.8692 163.824 28.2095 164.648 27.8198 165.612C27.4302 166.576 27.3283 167.637 27.5269 168.66C27.7255 169.683 28.2158 170.623 28.9357 171.361C29.6556 172.099 30.5728 172.602 31.5714 172.805C32.5699 173.009 33.6049 172.904 34.5455 172.505C35.4861 172.106 36.2901 171.429 36.8557 170.562C37.4213 169.694 37.7233 168.674 37.7233 167.631C37.7233 166.232 37.1809 164.89 36.2156 163.9C35.2502 162.911 33.9409 162.355 32.5756 162.355Z" fill="#C2C2C2"/>
<path d="M60.0041 162.355C58.986 162.355 57.9907 162.664 57.1442 163.244C56.2977 163.824 55.6379 164.648 55.2483 165.612C54.8587 166.576 54.7567 167.637 54.9554 168.66C55.154 169.683 55.6443 170.623 56.3642 171.361C57.0841 172.099 58.0013 172.602 58.9998 172.805C59.9984 173.009 61.0334 172.904 61.974 172.505C62.9146 172.106 63.7186 171.429 64.2842 170.562C64.8498 169.694 65.1517 168.674 65.1517 167.631C65.1517 166.232 64.6094 164.89 63.644 163.9C62.6786 162.911 61.3693 162.355 60.0041 162.355Z" fill="#C2C2C2"/>
<path d="M87.424 162.355C86.4059 162.355 85.4106 162.664 84.5641 163.244C83.7176 163.824 83.0578 164.648 82.6682 165.612C82.2786 166.576 82.1767 167.637 82.3753 168.66C82.5739 169.683 83.0642 170.623 83.7841 171.361C84.504 172.099 85.4212 172.602 86.4198 172.805C87.4183 173.009 88.4533 172.904 89.3939 172.505C90.3345 172.106 91.1385 171.429 91.7041 170.562C92.2697 169.694 92.5717 168.674 92.5717 167.631C92.5717 166.232 92.0293 164.89 91.0639 163.9C90.0986 162.911 88.7893 162.355 87.424 162.355Z" fill="#C2C2C2"/>
<path d="M114.852 162.355C113.834 162.355 112.839 162.664 111.992 163.244C111.146 163.824 110.486 164.648 110.096 165.612C109.707 166.576 109.605 167.637 109.804 168.66C110.002 169.683 110.492 170.623 111.212 171.361C111.932 172.099 112.849 172.602 113.848 172.805C114.847 173.009 115.882 172.904 116.822 172.505C117.763 172.106 118.567 171.429 119.132 170.562C119.698 169.694 120 168.674 120 167.631C120 166.232 119.458 164.89 118.492 163.9C117.527 162.911 116.217 162.355 114.852 162.355Z" fill="#C2C2C2"/>
<path d="M5.14765 190.466C4.12955 190.466 3.13429 190.775 2.28777 191.355C1.44124 191.935 0.781472 192.759 0.39186 193.723C0.00224738 194.687 -0.0997159 195.748 0.0989068 196.771C0.297529 197.794 0.78781 198.735 1.50772 199.472C2.22763 200.21 3.14484 200.713 4.14338 200.916C5.14192 201.12 6.17694 201.015 7.11755 200.616C8.05816 200.217 8.86211 199.54 9.42774 198.673C9.99337 197.805 10.2953 196.785 10.2953 195.742C10.2953 194.343 9.75295 193.001 8.78758 192.011C7.82222 191.022 6.51289 190.466 5.14765 190.466Z" fill="#C2C2C2"/>
<path d="M32.5756 190.466C31.5575 190.466 30.5623 190.775 29.7157 191.355C28.8692 191.935 28.2095 192.759 27.8198 193.723C27.4302 194.687 27.3283 195.748 27.5269 196.771C27.7255 197.794 28.2158 198.735 28.9357 199.472C29.6556 200.21 30.5728 200.713 31.5714 200.916C32.5699 201.12 33.6049 201.015 34.5455 200.616C35.4861 200.217 36.2901 199.54 36.8557 198.673C37.4213 197.805 37.7233 196.785 37.7233 195.742C37.7233 194.343 37.1809 193.001 36.2156 192.011C35.2502 191.022 33.9409 190.466 32.5756 190.466Z" fill="#C2C2C2"/>
<path d="M60.0041 190.466C58.986 190.466 57.9907 190.775 57.1442 191.355C56.2977 191.935 55.6379 192.759 55.2483 193.723C54.8587 194.687 54.7567 195.748 54.9554 196.771C55.154 197.794 55.6443 198.735 56.3642 199.472C57.0841 200.21 58.0013 200.713 58.9998 200.916C59.9984 201.12 61.0334 201.015 61.974 200.616C62.9146 200.217 63.7186 199.54 64.2842 198.673C64.8498 197.805 65.1517 196.785 65.1517 195.742C65.1517 194.343 64.6094 193.001 63.644 192.011C62.6786 191.022 61.3693 190.466 60.0041 190.466Z" fill="#C2C2C2"/>
<path d="M87.424 190.466C86.4059 190.466 85.4106 190.775 84.5641 191.355C83.7176 191.935 83.0578 192.759 82.6682 193.723C82.2786 194.687 82.1767 195.748 82.3753 196.771C82.5739 197.794 83.0642 198.735 83.7841 199.472C84.504 200.21 85.4212 200.713 86.4198 200.916C87.4183 201.12 88.4533 201.015 89.3939 200.616C90.3345 200.217 91.1385 199.54 91.7041 198.673C92.2697 197.805 92.5717 196.785 92.5717 195.742C92.5717 194.343 92.0293 193.001 91.0639 192.011C90.0986 191.022 88.7893 190.466 87.424 190.466Z" fill="#C2C2C2"/>
<path d="M114.852 190.466C113.834 190.466 112.839 190.775 111.992 191.355C111.146 191.935 110.486 192.759 110.096 193.723C109.707 194.687 109.605 195.748 109.804 196.771C110.002 197.794 110.492 198.735 111.212 199.472C111.932 200.21 112.849 200.713 113.848 200.916C114.847 201.12 115.882 201.015 116.822 200.616C117.763 200.217 118.567 199.54 119.132 198.673C119.698 197.805 120 196.785 120 195.742C120 194.343 119.458 193.001 118.492 192.011C117.527 191.022 116.217 190.466 114.852 190.466Z" fill="#C2C2C2"/>
<path d="M5.14765 218.569C4.12955 218.569 3.13429 218.878 2.28777 219.458C1.44124 220.037 0.781472 220.861 0.39186 221.825C0.00224738 222.789 -0.0997159 223.85 0.0989068 224.874C0.297529 225.897 0.78781 226.837 1.50772 227.575C2.22763 228.313 3.14484 228.815 4.14338 229.019C5.14192 229.222 6.17694 229.118 7.11755 228.719C8.05816 228.319 8.86211 227.643 9.42774 226.775C9.99337 225.908 10.2953 224.888 10.2953 223.844C10.2953 222.445 9.75295 221.103 8.78758 220.114C7.82222 219.124 6.51289 218.569 5.14765 218.569Z" fill="#C2C2C2"/>
<path d="M32.5756 218.569C31.5575 218.569 30.5623 218.878 29.7157 219.458C28.8692 220.037 28.2095 220.861 27.8198 221.825C27.4302 222.789 27.3283 223.85 27.5269 224.874C27.7255 225.897 28.2158 226.837 28.9357 227.575C29.6556 228.313 30.5728 228.815 31.5714 229.019C32.5699 229.222 33.6049 229.118 34.5455 228.719C35.4861 228.319 36.2901 227.643 36.8557 226.775C37.4213 225.908 37.7233 224.888 37.7233 223.844C37.7233 222.445 37.1809 221.103 36.2156 220.114C35.2502 219.124 33.9409 218.569 32.5756 218.569Z" fill="#C2C2C2"/>
<path d="M60.0041 218.569C58.986 218.569 57.9907 218.878 57.1442 219.458C56.2977 220.037 55.6379 220.861 55.2483 221.825C54.8587 222.789 54.7567 223.85 54.9554 224.874C55.154 225.897 55.6443 226.837 56.3642 227.575C57.0841 228.313 58.0013 228.815 58.9998 229.019C59.9984 229.222 61.0334 229.118 61.974 228.719C62.9146 228.319 63.7186 227.643 64.2842 226.775C64.8498 225.908 65.1517 224.888 65.1517 223.844C65.1517 222.445 64.6094 221.103 63.644 220.114C62.6786 219.124 61.3693 218.569 60.0041 218.569Z" fill="#C2C2C2"/>
<path d="M87.424 218.569C86.4059 218.569 85.4106 218.878 84.5641 219.458C83.7176 220.037 83.0578 220.861 82.6682 221.825C82.2786 222.789 82.1767 223.85 82.3753 224.874C82.5739 225.897 83.0642 226.837 83.7841 227.575C84.504 228.313 85.4212 228.815 86.4198 229.019C87.4183 229.222 88.4533 229.118 89.3939 228.719C90.3345 228.319 91.1385 227.643 91.7041 226.775C92.2697 225.908 92.5717 224.888 92.5717 223.844C92.5717 222.445 92.0293 221.103 91.0639 220.114C90.0986 219.124 88.7893 218.569 87.424 218.569Z" fill="#C2C2C2"/>
<path d="M114.852 218.569C113.834 218.569 112.839 218.878 111.992 219.458C111.146 220.037 110.486 220.861 110.096 221.825C109.707 222.789 109.605 223.85 109.804 224.874C110.002 225.897 110.492 226.837 111.212 227.575C111.932 228.313 112.849 228.815 113.848 229.019C114.847 229.222 115.882 229.118 116.822 228.719C117.763 228.319 118.567 227.643 119.132 226.775C119.698 225.908 120 224.888 120 223.844C120 222.445 119.458 221.103 118.492 220.114C117.527 219.124 116.217 218.569 114.852 218.569Z" fill="#C2C2C2"/>
<path d="M5.14765 246.679C4.12955 246.679 3.13429 246.989 2.28777 247.569C1.44124 248.148 0.781472 248.972 0.39186 249.936C0.00224738 250.9 -0.0997159 251.961 0.0989068 252.985C0.297529 254.008 0.78781 254.948 1.50772 255.686C2.22763 256.424 3.14484 256.926 4.14338 257.13C5.14192 257.333 6.17694 257.229 7.11755 256.83C8.05816 256.43 8.86211 255.754 9.42774 254.886C9.99337 254.019 10.2953 252.999 10.2953 251.955C10.2953 250.556 9.75295 249.214 8.78758 248.225C7.82222 247.235 6.51289 246.679 5.14765 246.679Z" fill="#C2C2C2"/>
<path d="M32.5756 246.679C31.5575 246.679 30.5623 246.989 29.7157 247.569C28.8692 248.148 28.2095 248.972 27.8198 249.936C27.4302 250.9 27.3283 251.961 27.5269 252.985C27.7255 254.008 28.2158 254.948 28.9357 255.686C29.6556 256.424 30.5728 256.926 31.5714 257.13C32.5699 257.333 33.6049 257.229 34.5455 256.83C35.4861 256.43 36.2901 255.754 36.8557 254.886C37.4213 254.019 37.7233 252.999 37.7233 251.955C37.7233 250.556 37.1809 249.214 36.2156 248.225C35.2502 247.235 33.9409 246.679 32.5756 246.679Z" fill="#C2C2C2"/>
<path d="M60.0041 246.679C58.986 246.679 57.9907 246.989 57.1442 247.569C56.2977 248.148 55.6379 248.972 55.2483 249.936C54.8587 250.9 54.7567 251.961 54.9554 252.985C55.154 254.008 55.6443 254.948 56.3642 255.686C57.0841 256.424 58.0013 256.926 58.9998 257.13C59.9984 257.333 61.0334 257.229 61.974 256.83C62.9146 256.43 63.7186 255.754 64.2842 254.886C64.8498 254.019 65.1517 252.999 65.1517 251.955C65.1517 250.556 64.6094 249.214 63.644 248.225C62.6786 247.235 61.3693 246.679 60.0041 246.679Z" fill="#C2C2C2"/>
<path d="M87.424 246.679C86.4059 246.679 85.4106 246.989 84.5641 247.569C83.7176 248.148 83.0578 248.972 82.6682 249.936C82.2786 250.9 82.1767 251.961 82.3753 252.985C82.5739 254.008 83.0642 254.948 83.7841 255.686C84.504 256.424 85.4212 256.926 86.4198 257.13C87.4183 257.333 88.4533 257.229 89.3939 256.83C90.3345 256.43 91.1385 255.754 91.7041 254.886C92.2697 254.019 92.5717 252.999 92.5717 251.955C92.5717 250.556 92.0293 249.214 91.0639 248.225C90.0986 247.235 88.7893 246.679 87.424 246.679Z" fill="#C2C2C2"/>
<path d="M114.852 246.679C113.834 246.679 112.839 246.989 111.992 247.569C111.146 248.148 110.486 248.972 110.096 249.936C109.707 250.9 109.605 251.961 109.804 252.985C110.002 254.008 110.492 254.948 111.212 255.686C111.932 256.424 112.849 256.926 113.848 257.13C114.847 257.333 115.882 257.229 116.822 256.83C117.763 256.43 118.567 255.754 119.132 254.886C119.698 254.019 120 252.999 120 251.955C120 250.556 119.458 249.214 118.492 248.225C117.527 247.235 116.217 246.679 114.852 246.679Z" fill="#C2C2C2"/>
</svg>
